<svg id="Carrito-Icon" xmlns="http://www.w3.org/2000/svg" width="30.742" height="28.18" viewBox="0 0 30.742 28.18">
  <g id="Grupo_187" data-name="Grupo 187" transform="translate(20.495 21.775)">
    <g id="Grupo_186" data-name="Grupo 186">
      <path id="Trazado_178" data-name="Trazado 178" d="M344.536,384a3.2,3.2,0,1,0,3.2,3.2A3.207,3.207,0,0,0,344.536,384Zm0,5.124a1.921,1.921,0,1,1,1.921-1.921A1.924,1.924,0,0,1,344.536,389.126Z" transform="translate(-341.334 -384.002)" fill="#fff"/>
    </g>
  </g>
  <g id="Grupo_189" data-name="Grupo 189" transform="translate(7.685 21.775)">
    <g id="Grupo_188" data-name="Grupo 188">
      <path id="Trazado_179" data-name="Trazado 179" d="M131.2,384a3.2,3.2,0,1,0,3.2,3.2A3.207,3.207,0,0,0,131.2,384Zm0,5.124a1.921,1.921,0,1,1,1.921-1.921A1.924,1.924,0,0,1,131.2,389.126Z" transform="translate(-128 -384.002)" fill="#fff"/>
    </g>
  </g>
  <g id="Grupo_191" data-name="Grupo 191">
    <g id="Grupo_190" data-name="Grupo 190">
      <path id="Trazado_180" data-name="Trazado 180" d="M27.54,40.55H11.476a3.211,3.211,0,0,1-3.14-2.575L5.111,21.851a.64.64,0,0,0-.628-.515H.64a.64.64,0,1,0,0,1.281H3.958L7.08,38.227a4.5,4.5,0,0,0,4.4,3.6H27.54a.64.64,0,0,0,0-1.281Z" transform="translate(0 -21.336)" fill="#fff"/>
    </g>
  </g>
  <g id="Grupo_193" data-name="Grupo 193" transform="translate(5.124 3.843)">
    <g id="Grupo_192" data-name="Grupo 192">
      <path id="Trazado_181" data-name="Trazado 181" d="M110.795,85.556a.643.643,0,0,0-.484-.22H85.973a.64.64,0,1,0,0,1.281h23.6l-1.035,7.262a.641.641,0,0,1-.557.546l-20.16,2.444a.641.641,0,0,0,.076,1.277.769.769,0,0,0,.077,0l20.16-2.445a1.926,1.926,0,0,0,1.67-1.636l1.143-7.994A.637.637,0,0,0,110.795,85.556Z" transform="translate(-85.333 -85.336)" fill="#fff"/>
    </g>
  </g>
</svg>
