<svg xmlns="http://www.w3.org/2000/svg" width="23.665" height="22.48" viewBox="0 0 23.665 22.48">
  <g id="Contact-Icon" transform="translate(0)">
    <g id="Grupo_185" data-name="Grupo 185" transform="translate(0 0)">
      <g id="Grupo_184" data-name="Grupo 184">
        <path id="Trazado_174" data-name="Trazado 174" d="M22.66,12.813H6.13a1.007,1.007,0,0,0-1.006,1.006v4.559l-.756-1.134a1.169,1.169,0,0,0-1.578-.355l-1.555.935A2.282,2.282,0,0,0,.193,19.176C-.375,21.242.046,24.8,5.27,30.026c4.154,4.15,7.251,5.268,9.386,5.268A5.511,5.511,0,0,0,16.12,35.1a2.286,2.286,0,0,0,1.352-1.041l.934-1.557a1.169,1.169,0,0,0-.355-1.576l-3.724-2.482a1.175,1.175,0,0,0-1.573.255L11.67,30.095a.378.378,0,0,1-.483.1l-.206-.114A12.4,12.4,0,0,1,7.75,27.546c-.185-.185-.352-.357-.509-.523H22.66a1,1,0,0,0,1.006-1v-12.2A1.007,1.007,0,0,0,22.66,12.813ZM10.6,30.776l.2.11a1.162,1.162,0,0,0,1.489-.307l1.084-1.394a.383.383,0,0,1,.513-.083l3.724,2.482a.381.381,0,0,1,.116.513L16.8,33.654a1.5,1.5,0,0,1-.884.686c-1.865.513-5.129.079-10.082-4.875S.443,21.248.955,19.385a1.5,1.5,0,0,1,.686-.884L3.2,17.567a.381.381,0,0,1,.513.116l2.483,3.724a.383.383,0,0,1-.083.513L4.716,23a1.162,1.162,0,0,0-.307,1.489l.11.2A13.079,13.079,0,0,0,7.192,28.1,13.1,13.1,0,0,0,10.6,30.776Zm12.274-4.754a.215.215,0,0,1-.217.213H6.529a9.949,9.949,0,0,1-1.316-1.919L5.1,24.109a.376.376,0,0,1,.1-.482L6.6,22.542a1.175,1.175,0,0,0,.255-1.573l-.937-1.407V13.819A.215.215,0,0,1,6.13,13.6H22.66a.215.215,0,0,1,.217.217v12.2Z" transform="translate(-0.001 -12.813)" fill="#fff"/>
        <path id="Trazado_175" data-name="Trazado 175" d="M159.739,50.651l-5.216,3.956a.421.421,0,0,1-.495,0l-5.214-3.956a.312.312,0,0,0-.377.5l5.215,3.955a1.05,1.05,0,0,0,1.248,0l5.216-3.955a.312.312,0,0,0-.377-.5Z" transform="translate(-139.929 -48.439)" fill="#fff"/>
        <path id="Trazado_176" data-name="Trazado 176" d="M152.091,172.5l-3.2,3.424a.312.312,0,0,0,.457.426l3.2-3.425a.312.312,0,0,0-.457-.424Z" transform="translate(-141.563 -164.58)" fill="#fff"/>
        <path id="Trazado_177" data-name="Trazado 177" d="M370.492,172.178a.312.312,0,0,0-.457.426l3.2,3.424a.312.312,0,0,0,.457-.426Z" transform="translate(-351.477 -164.262)" fill="#fff"/>
      </g>
    </g>
  </g>
</svg>
