<svg xmlns="http://www.w3.org/2000/svg" width="48.235" height="48.235" viewBox="0 0 48.235 48.235">
  <g id="instagram" transform="translate(0 0)">
    <path id="Trazado_3" data-name="Trazado 3" d="M18.222,5.838A12.376,12.376,0,1,0,30.6,18.214,12.375,12.375,0,0,0,18.222,5.838Zm0,20.409a8.033,8.033,0,1,1,8.033-8.033A8.03,8.03,0,0,1,18.222,26.247Z" transform="translate(5.904 5.894)" fill="#fff"/>
    <path id="Trazado_4" data-name="Trazado 4" d="M34.062.152c-4.438-.207-15.429-.2-19.871,0-3.9.183-7.346,1.125-10.121,3.9C-.569,8.692.024,14.942.024,24.109.024,33.49-.5,39.6,4.07,44.164c4.657,4.655,11,4.046,20.056,4.046,9.293,0,12.5.006,15.787-1.266,4.468-1.734,7.84-5.728,8.17-12.9.209-4.44.2-15.429,0-19.871C47.684,5.705,43.14.57,34.062.152ZM41.086,41.1c-3.041,3.041-7.259,2.769-17.019,2.769-10.049,0-14.078.149-17.019-2.8-3.386-3.37-2.773-8.783-2.773-16.989,0-11.1-1.14-19.1,10-19.672,2.56-.09,3.314-.121,9.759-.121l.09.06c10.71,0,19.113-1.121,19.617,10.021.115,2.542.141,3.306.141,9.741,0,9.932.187,13.986-2.8,16.989Z" transform="translate(0 -0.001)" fill="#fff"/>
    <ellipse id="Elipse_3" data-name="Elipse 3" cx="2.892" cy="2.892" rx="2.892" ry="2.892" transform="translate(34.1 8.351)" fill="#fff"/>
  </g>
</svg>
