<?xml version="1.0" encoding="utf-8"?>
<!-- Generator: Adobe Illustrator 25.3.1, SVG Export Plug-In . SVG Version: 6.00 Build 0)  -->
<svg version="1.1" id="Capa_1" xmlns="http://www.w3.org/2000/svg" xmlns:xlink="http://www.w3.org/1999/xlink" x="0px" y="0px"
	 viewBox="0 0 100 64.38" style="enable-background:new 0 0 100 64.38;" xml:space="preserve">
<style type="text/css">
	.st0{fill:none;}
	.st1{fill:#FFFFFF;}
	.st2{fill:#FE5E00;}
</style>
<g>
	<g>
		<path class="st0" d="M50.88,56.53l0.08,0.1c0.03-0.04,0.07-0.08,0.1-0.12C51,56.51,50.88,56.53,50.88,56.53L50.88,56.53z"/>
		<path class="st0" d="M50.86,8.38l-0.06-0.01l-0.04,0.06c0.01,0,0.01,0.01,0.02,0.01C50.8,8.42,50.83,8.4,50.86,8.38z"/>
		<path class="st0" d="M51.49,55.96c1.25-1.46,2.75-2.7,3.98-4.21c0.01-0.01,0.02-0.03,0.03-0.04
			C54.22,53.18,52.71,54.44,51.49,55.96z"/>
		<path class="st1" d="M78.96,3.7c-9.58-3.03-18.45-1.63-26.62,3.66l-0.54-0.39c-5.68-4.12-11.56-6.44-17.47-6.9
			C28.3-0.38,22.2,1.1,16.21,4.49C10.17,7.92,5.74,12.42,3.04,17.87c-2.67,5.41-3.59,11.65-2.73,18.56
			c1.43,11.44,8.58,20.93,19.12,25.39c4.06,1.72,8.32,2.56,12.55,2.56c6.95,0,13.85-2.28,19.74-6.73l-0.09-0.12
			c2.07,1.49,4.32,2.66,6.7,3.61c15.79,6.29,34.01-1.85,39.8-17.8C104.07,26.95,95.39,8.9,78.96,3.7z M55.82,51.33
			c-0.1,0.13-0.21,0.25-0.31,0.37c-0.01,0.01-0.02,0.03-0.03,0.04c-1.23,1.51-2.73,2.75-3.98,4.21c-0.14,0.18-0.28,0.36-0.42,0.54
			c0,0-0.01,0-0.03,0c-0.03,0.04-0.07,0.08-0.1,0.12l-0.08-0.1l-0.19-0.04c-0.16-0.18-0.32-0.36-0.48-0.54
			c-8.8,6.56-19.96,7.98-29.89,3.78C10.52,55.59,3.88,46.78,2.56,36.15C0.93,23.12,6.04,12.86,17.33,6.46
			c11.07-6.27,22.15-5.53,32.94,2.2c0.15-0.08,0.3-0.16,0.46-0.23c0.01,0,0.01,0.01,0.02,0.01l0.04-0.06l0.06,0.01
			c-0.03,0.02-0.06,0.04-0.09,0.06c2.45,0.83,3.75,2.95,5.26,4.79C64.84,23.92,64.67,40.52,55.82,51.33z"/>
		<path class="st2" d="M50.77,8.44c-0.01,0-0.01-0.01-0.02-0.01l-0.03,0.05C50.73,8.47,50.75,8.45,50.77,8.44z"/>
		<path class="st2" d="M51.08,56.5c0.13-0.19,0.27-0.37,0.42-0.54c-0.15,0.18-0.3,0.36-0.44,0.55C51.07,56.5,51.08,56.5,51.08,56.5z
			"/>
		<path class="st2" d="M50.21,55.95c0.16,0.18,0.32,0.36,0.48,0.54l0.19,0.04l-0.52-0.68C50.31,55.88,50.26,55.92,50.21,55.95z"/>
	</g>
	<g>
		<path class="st1" d="M39.25,34.51c0.1,1.42,0.3,2.83,0.6,4.21h21.98c0.3-1.39,0.51-2.8,0.62-4.21H39.25z"/>
		<path class="st1" d="M41.22,43.37c0.56,1.46,1.24,2.87,2.02,4.21h15.18c0.79-1.35,1.46-2.76,2.02-4.21H41.22z"/>
		<path class="st1" d="M39.83,25.65c-0.29,1.39-0.49,2.8-0.59,4.21h23.23c-0.1-1.42-0.29-2.83-0.58-4.21H39.83z"/>
		<path class="st1" d="M55.17,12.15c-1.2-1.53-2.42-3.04-4.4-3.71c-0.02,0.01-0.04,0.03-0.05,0.04l0.03-0.05
			c-0.01,0-0.01-0.01-0.02-0.01c-0.16,0.07-0.31,0.15-0.46,0.23c-1.52,0.83-2.53,2.21-3.64,3.5H55.17z"/>
		<path class="st1" d="M43.22,16.8c-0.79,1.35-1.46,2.76-2.02,4.21h19.34c-0.56-1.45-1.23-2.86-2.02-4.21H43.22z"/>
		<path class="st1" d="M46.69,52.22c1.15,1.27,2.36,2.47,3.52,3.73c0.05-0.04,0.1-0.07,0.15-0.11l0.52,0.68l0.01,0
			c0,0,0.11-0.02,0.17-0.02c0.14-0.19,0.29-0.37,0.44-0.55c1.08-1.34,2.37-2.47,3.55-3.73H46.69z"/>
	</g>
</g>
</svg>
