<?xml version="1.0" encoding="utf-8"?>
<!-- Generator: Adobe Illustrator 25.2.1, SVG Export Plug-In . SVG Version: 6.00 Build 0)  -->
<svg version="1.1" id="Capa_1" xmlns="http://www.w3.org/2000/svg" xmlns:xlink="http://www.w3.org/1999/xlink" x="0px" y="0px"
	 viewBox="0 0 512 512" style="enable-background:new 0 0 512 512;" xml:space="preserve">
<style type="text/css">
	.st0{fill:#FFFFFF;}
</style>
<g>
	<g>
		<path class="st0" d="M365,101.9c-16.9-19.1-47.6-27.4-86.7-27.4H164.6c-8,0-14.8,5.8-16.1,13.6L101.1,386
			c-0.9,5.9,3.7,11.2,9.6,11.2h70.2l17.7-111l-0.6,3.5c1.3-7.8,8-13.6,16-13.6h33.3c65.5,0,116.8-26.4,131.9-102.8
			c0.4-2.3,1.1-6.6,1.1-6.6C384.7,138.4,380.4,119.3,365,101.9z"/>
	</g>
</g>
<g>
	<g>
		<path class="st0" d="M398.2,181.2c-16.3,75.2-68.3,115-150.7,115h-29.9l-22.3,141.3h48.5c7,0,13-5,14-11.9l0.6-3l11.2-70.2
			l0.7-3.8c1.1-6.9,7.1-11.9,14-11.9h8.9c57.4,0,102.2-23.1,115.4-89.9C413.7,219.9,411.2,197.4,398.2,181.2z"/>
	</g>
</g>
</svg>
