<?xml version="1.0" encoding="utf-8"?>
<!-- Generator: Adobe Illustrator 25.2.1, SVG Export Plug-In . SVG Version: 6.00 Build 0)  -->
<svg version="1.1" id="Capa_1" xmlns="http://www.w3.org/2000/svg" xmlns:xlink="http://www.w3.org/1999/xlink" x="0px" y="0px"
	 viewBox="0 0 111 43.2" style="enable-background:new 0 0 111 43.2;" xml:space="preserve">
<style type="text/css">
	.st0{fill:#FFFFFF;}
</style>
<g>
	<path class="st0" d="M2.3,12.4c1.1,0.3,2,0.5,3,0.8c0.6,0.2,0.9,0.1,0.9-0.6c0.1-3,1.6-5.2,4.2-6.7c5-2.9,11.5,0.6,12,6.4
		c0.1,0.9,0.4,1.1,1.2,0.8c0.5-0.2,1-0.4,1.5-0.6c0.5-0.2,0.7,0,0.8,0.5c0,0.7,0.1,1.4,0.1,2.1c0.1,7.1,0.7,14.1,1.6,21
		c0.1,0.6,0.2,1.2,0.3,1.8c0.1,0.7,0,0.8-0.7,0.8c-8.1,0-16.2,0-24.3,0c-0.7,0-1.3,0-2,0c-0.4,0-0.6-0.1-0.5-0.5
		c0.5-4.5,1.1-9,1.4-13.5c0.3-3.8,0.3-7.7,0.5-11.5C2.3,13,2.3,12.8,2.3,12.4z M21.5,13.5c-0.4-1-0.6-2.1-1-3
		c-1.3-3.1-4.5-4.8-7.7-4.1c-3.1,0.7-5.3,3.5-5.5,7.3C12,14.4,16.7,14.4,21.5,13.5z M10.1,33.4c2.5,0,4.9,0,7.5,0
		c-0.1-0.3-0.1-0.5-0.2-0.8c-0.5-1.3-1-2.6-1.6-3.9c-0.3-0.7-0.2-1.2,0.4-1.7c0.2-0.2,0.5-0.4,0.7-0.6c1.8-1.9,1.2-5.1-1.1-6.2
		c-1.9-0.9-4.2-0.2-5.3,1.6c-1,1.7-0.5,3.9,1.2,5.1c0.6,0.4,0.6,0.9,0.3,1.4c-0.6,1.5-1.2,2.9-1.9,4.4C10.2,33,10.2,33.2,10.1,33.4z
		"/>
	<path class="st0" d="M81.6,11.1c0.7-0.4,1.4-0.9,2.1-1.2c1.9-0.6,3.7,0.4,4,2.4c0.4,2.7-0.2,5.2-2.2,7.2c-1.3,1.3-2.8,1.7-4.6,1.3
		c-0.7-0.2-0.9,0.1-1,0.7c-0.1,0.9-0.3,1.9-0.5,2.8c-0.1,0.5-0.4,0.8-0.9,0.8c-0.4,0-0.8,0-1.2,0c-0.7,0-1-0.3-0.8-1
		c0.3-1.9,0.7-3.8,1.1-5.8c0.4-2.5,0.9-5,1.3-7.5c0.1-0.6,0.3-0.9,1-0.8c0.1,0,0.3,0,0.4,0C81.5,9.9,81.5,9.9,81.6,11.1z M84.6,14.1
		c0-0.2,0-0.3,0-0.5c0-0.5-0.2-1-0.8-1.1c-0.4-0.1-1,0.1-1.4,0.3c-0.3,0.1-0.4,0.4-0.6,0.7c-0.8,1.3-1,2.9-1.1,4.4
		c-0.1,0.6,0.4,0.9,1,0.9c0.7,0,1.3-0.4,1.7-0.9C84.2,16.7,84.5,15.4,84.6,14.1z"/>
	<path class="st0" d="M60.7,10.9c0.8-0.4,1.6-0.9,2.5-1.1c1.9-0.4,3.2,0.6,3.1,2.6c-0.1,1.4-0.4,2.9-0.6,4.3c-0.2,1-0.3,2-0.6,3
		c-0.2,0.8-0.5,1.1-1.3,1.1c-0.4,0-0.7,0-1.1,0c-0.7,0-0.8-0.1-0.7-0.8c0.4-2,0.7-3.9,1.1-5.9c0.1-0.6,0.2-1.3-0.5-1.7
		c-0.5-0.2-1.2,0-1.7,0.7c-0.4,0.6-0.8,1.4-1,2.1c-0.4,1.5-0.6,3-0.9,4.5c-0.2,0.9-0.3,1.1-1.3,1.1c-1.9,0-2-0.1-1.7-2
		c0.8-4.2,1.6-8.4,2.4-12.5c0.2-0.8,0.3-1,1.2-1c2,0,2.1,0.1,1.7,2C61.2,8.5,61,9.7,60.7,10.9C60.7,10.9,60.7,11,60.7,10.9z"/>
	<path class="st0" d="M104.9,16.8c0.2-0.4,0.3-0.6,0.4-0.9c0.6-1.6,1.2-3.3,1.9-4.9c0.4-1.1,0.4-1.1,1.6-1.1c0.6,0,1.2,0,1.9,0
		c-0.1,0.3-0.1,0.5-0.2,0.6c-1.4,2.9-2.7,5.8-4.2,8.6c-0.7,1.4-1.6,2.7-2.5,3.9c-0.7,0.8-1.6,1.5-2.6,2c-0.9,0.5-1.4,0.2-1.7-0.7
		c0-0.1-0.1-0.1-0.1-0.2c-0.3-1.1-0.3-1.1,0.8-1.7c0.4-0.2,0.8-0.4,1.1-0.7c1.1-0.8,1.4-1.9,1.1-3.3c-0.5-2.5-1-5.1-1.5-7.6
		c-0.2-0.8-0.1-0.9,0.8-0.9c2.2,0,2.3,0.1,2.5,2.3c0.1,1.3,0.3,2.6,0.4,4C104.8,16.4,104.8,16.5,104.9,16.8z"/>
	<path class="st0" d="M71.1,21c-2.6,0-4.2-1.6-4.2-4.2c-0.1-3.1,1.6-5.8,4.2-6.7c3-1.1,6.3,0.3,6.1,4.3c-0.1,1.7-0.6,3.1-1.6,4.5
		C74.4,20.3,72.9,21,71.1,21z M70.1,16.5c0,0.1,0,0.2,0,0.3c0,1.1,0.3,1.6,1,1.8c0.8,0.2,1.4-0.1,1.9-1c0.7-1.1,1-2.4,0.9-3.8
		c0-0.9-0.3-1.4-1-1.6c-0.7-0.2-1.3,0.1-1.8,0.8C70.4,14,70.1,15.2,70.1,16.5z"/>
	<path class="st0" d="M100,5.1c0.2,0,0.4,0,0.6,0c1,0.1,1.2,0.3,0.9,1.3c-0.1,0.2-0.1,0.4-0.1,0.6c-0.1,0.5-0.4,0.7-0.9,0.6
		c-1-0.2-2,0.7-2.1,1.8c-0.1,0.4,0,0.6,0.5,0.6c0,0,0.1,0,0.1,0c1.4,0,1.7,0.6,1.1,1.9c-0.2,0.4-0.5,0.5-1,0.5
		c-1.1-0.1-1.2,0.1-1.4,1.2c-0.4,2.1-0.8,4.1-1.2,6.2c-0.2,1-0.3,1.1-1.3,1.1c-2,0-2,0-1.7-2c0.3-1.9,0.7-3.7,1.1-5.6
		c0.1-0.6,0.1-1-0.7-0.9c-0.1,0-0.4-0.1-0.4-0.2c0.1-0.6,0.1-1.2,0.3-1.8c0.1-0.2,0.5-0.3,0.8-0.3c0.5,0,0.6-0.3,0.8-0.6
		c0.2-0.6,0.3-1.1,0.5-1.6C96.6,5.9,98,5.1,100,5.1z"/>
	<path class="st0" d="M53.8,9.8c0.5,0.1,1,0.1,1.5,0.2c0.7,0.2,0.9,0.6,0.7,1.3c-0.1,0.2-0.2,0.5-0.3,0.7c-0.2,0.4-0.4,0.4-0.8,0.3
		c-0.5-0.1-1.1-0.2-1.6-0.2c-0.5,0-1,0.2-1,0.8c0,0.4,0.3,0.8,0.6,1.1c0.4,0.4,0.8,0.6,1.2,0.9c2.1,1.5,1.9,4.2-0.3,5.5
		c-1.8,1-3.7,1-5.5,0.2c-1-0.4,0.1-1.2,0.1-1.8c0-0.4,0.3-0.5,0.8-0.4c0.7,0.2,1.4,0.4,2.1,0.4c0.5,0,1-0.2,1.1-0.8
		c0.2-0.5-0.1-0.9-0.6-1.2c-0.5-0.3-0.9-0.6-1.4-0.9c-2.1-1.5-1.3-4.2,0.3-5.2C51.6,10,52.6,9.8,53.8,9.8z"/>
	<path class="st0" d="M89.1,20.8c-1.4,0-1.5-0.1-1.2-1.4c0.5-2.8,1-5.6,1.6-8.3c0.2-0.9,0.3-1,1.2-1c2.1,0,2.1,0.1,1.7,2.1
		c-0.5,2.4-0.9,4.7-1.4,7.1C90.7,20.8,90.7,20.8,89.1,20.8z"/>
	<path class="st0" d="M37.9,21.6c0,6.9,0,13.7,0,20.6c0,0.3-0.2,0.7-0.3,1c-0.1-0.3-0.3-0.7-0.3-1c0-13.4,0-26.9,0-40.3
		c0-0.4-0.1-0.8,0-1.2c0-0.2,0.2-0.3,0.3-0.4c0.1,0.2,0.3,0.3,0.3,0.4c0,0.4,0,0.8,0,1.2C37.9,8.3,37.9,14.9,37.9,21.6
		C37.9,21.6,37.9,21.6,37.9,21.6z"/>
	<path class="st0" d="M93.8,33.2c0.9,1.3,1.8,2.5,2.7,3.8c-1,0.3-1.4,0.2-1.8-0.5c-0.5-0.8-1-1.6-1.6-2.3c-0.6-0.8-1.4-1-2.3-0.8
		c-0.5,0.1-0.7,0.3-0.7,0.9c0.1,0.8,0,1.6,0,2.3c0,0.4-0.1,0.6-0.6,0.6S89,36.9,89,36.5c0-2.5,0-4.9,0-7.4c0-0.4,0.2-0.6,0.6-0.6
		c1.4,0,2.8,0,4.3,0.1c1.2,0.1,1.8,0.7,2,1.8c0.2,1-0.3,1.9-1.3,2.4C94.3,33,94,33.1,93.8,33.2z M92.1,29.6
		C92.1,29.6,92.1,29.6,92.1,29.6c-0.4-0.1-0.8-0.1-1.2-0.1c-0.2,0-0.7,0.2-0.7,0.3c-0.1,0.7,0,1.4,0,2.1c0,0.1,0.2,0.3,0.4,0.3
		c1.1,0,2.2,0,3.2-0.1c0.7-0.1,0.9-0.7,0.9-1.4c-0.1-0.7-0.4-1.1-1.1-1.1C93.1,29.6,92.6,29.6,92.1,29.6z"/>
	<path class="st0" d="M61.7,32.9c0-1.1,0-2.3,0-3.5c0-0.6,0.2-0.9,0.9-0.9c1.5,0,3,0,4.5,0c0.1,0,0.2,0,0.2,0
		c0.2,0.2,0.4,0.3,0.6,0.5c-0.2,0.2-0.4,0.5-0.6,0.5c-1.2,0-2.3,0-3.5,0c-0.8,0-0.9,0.1-1,0.9c-0.1,1.6,0,1.8,1.7,1.8
		c0.8,0,1.5,0,2.3,0c0.3,0,0.8-0.2,0.8,0.4c0,0.6-0.4,0.5-0.8,0.5c-1,0-2.1,0-3.1,0c-0.6,0-0.8,0.3-0.9,0.9c-0.1,1.9,0,2,1.9,2.1
		c0.9,0,1.8,0,2.7,0c0.4,0,0.7,0,0.8,0.5c0,0.5-0.4,0.5-0.7,0.5c-1.6,0-3.2,0-4.8,0c-0.8,0-0.9-0.1-0.9-0.9
		C61.7,35.1,61.7,34,61.7,32.9L61.7,32.9z"/>
	<path class="st0" d="M98.4,32.9c0-1.2,0-2.4,0-3.5c0-0.6,0.2-0.8,0.8-0.8c1.6,0,3.1,0,4.7,0c0.4,0,0.7,0,0.7,0.5
		c0,0.5-0.4,0.5-0.8,0.5c-1.1,0-2.2,0-3.4,0c-0.8,0-1,0.2-1,1c0,2.1,0,1.7,1.7,1.7c0.8,0,1.6,0,2.4,0c0.3,0,0.7-0.1,0.7,0.5
		c0,0.6-0.4,0.5-0.8,0.5c-1.1,0-2.1,0-3.2,0c-0.6,0-0.8,0.2-0.9,0.8c-0.1,1.9,0,2.1,1.9,2.1c0.9,0,1.8,0,2.8,0c0.3,0,0.7,0,0.7,0.5
		c0,0.5-0.3,0.5-0.7,0.5c-1.7,0-3.3,0-5,0c-0.6,0-0.8-0.2-0.8-0.8C98.4,35.2,98.4,34,98.4,32.9z"/>
	<path class="st0" d="M56.3,37.5c-1.8-0.2-2.9-0.9-3.4-2.3c-0.1-0.4-0.2-0.7,0.3-0.9c0.5-0.2,0.6,0.1,0.7,0.5c0.3,1.6,3.2,2,4.2,0.9
		c0.7-0.7,0.5-1.6-0.5-2c-0.7-0.3-1.5-0.4-2.2-0.7c-0.6-0.2-1.2-0.4-1.7-0.8c-0.9-0.6-1-1.6-0.5-2.5c0.7-1.1,1.8-1.4,3-1.4
		c1.2,0.1,2.2,0.4,2.8,1.6c0.1,0.3,0.4,0.6,0,0.9c-0.4,0.2-0.7,0-0.9-0.4c-0.7-1-1.8-1.4-2.9-1c-0.6,0.2-1,0.5-1.1,1.2
		c0,0.7,0.5,0.9,1,1.1c1.1,0.3,2.2,0.6,3.2,1.1c1.6,0.8,1.7,2.8,0.2,3.8C57.9,37,57,37.2,56.3,37.5z"/>
	<path class="st0" d="M86.4,32c0,0.7,0,1.3,0,2c-0.1,2.6-2.1,4-4.6,3.2c-1.2-0.4-2.1-1.2-2.1-2.6c-0.1-1.8-0.1-3.5-0.1-5.3
		c0-0.4,0.1-0.7,0.6-0.7c0.4,0,0.6,0.3,0.6,0.7c0,1.4,0,2.8,0,4.1c0,0.2,0,0.4,0,0.5c0.1,1.8,1.1,2.7,2.9,2.3c1-0.2,1.5-0.9,1.5-2.1
		c0-1.6,0-3.2,0-4.8c0-0.2,0.1-0.5,0.2-0.7c0.1-0.1,0.5-0.1,0.6,0c0.2,0.1,0.3,0.4,0.3,0.5C86.4,30.1,86.4,31.1,86.4,32
		C86.4,32,86.4,32,86.4,32z"/>
	<path class="st0" d="M70,32.6c0-3,2.8-5,5.5-4c0.8,0.3,1.4,0.9,1.8,1.7c0.1,0.2,0,0.6-0.1,0.6c-0.3,0-0.6,0-0.8,0
		c-0.1,0-0.1-0.2-0.2-0.3c-1-1.7-3.5-1.6-4.4,0.1c-0.8,1.5-0.7,3,0,4.4c0.5,0.9,1.3,1.2,2.3,1.2c1,0,1.7-0.4,2.1-1.2
		c0.2-0.4,0.3-1.1,1.1-0.7c0.7,0.4,0.1,0.9-0.1,1.2c-1.4,2.3-5.1,2.3-6.4-0.1c-0.5-0.9-0.6-1.9-0.9-2.8C69.9,32.7,70,32.7,70,32.6z"
		/>
	<path class="st0" d="M91.9,5.4c0.9,0,1.5,0.6,1.5,1.5c0,1-0.7,1.8-1.7,1.8c-0.9,0-1.5-0.6-1.6-1.5C90.1,6.2,90.9,5.4,91.9,5.4z"/>
</g>
</svg>
