<svg xmlns="http://www.w3.org/2000/svg" width="53.911" height="38.186" viewBox="0 0 53.911 38.186">
  <path id="youtube" d="M52.718,8.956l.067.44A6.834,6.834,0,0,0,48.14,4.652l-.047-.011C43.89,3.5,26.978,3.5,26.978,3.5S10.108,3.478,5.863,4.641A6.837,6.837,0,0,0,1.184,9.349L1.173,9.4a75.144,75.144,0,0,0,.07,26.836l-.07-.445a6.834,6.834,0,0,0,4.645,4.744l.047.011c4.2,1.143,21.115,1.143,21.115,1.143s16.867,0,21.115-1.143a6.836,6.836,0,0,0,4.681-4.708l.011-.047A70.228,70.228,0,0,0,53.91,23.1c0-.164,0-.33,0-.5s0-.335,0-.517A72.453,72.453,0,0,0,52.718,8.956ZM21.582,30.794V14.412l14.075,8.2Z" transform="translate(0 -3.5)" fill="#fff"/>
</svg>
